<svg xmlns="http://www.w3.org/2000/svg" width="18.528" height="22.445" viewBox="0 0 18.528 22.445">
  <g id="Group_3544" data-name="Group 3544" transform="translate(-18.998 -16.248)">
    <path id="Path_20039" data-name="Path 20039" d="M28.262,43.293a1.425,1.425,0,0,1-1.033-.442l-7.838-8.194a1.426,1.426,0,1,1,2.066-1.967L29.3,40.885a1.425,1.425,0,0,1-1.033,2.408Z" transform="translate(0 -4.6)" fill="#f8951d"/>
    <path id="Path_20040" data-name="Path 20040" d="M28.262,38.694a1.425,1.425,0,0,1-1.033-2.408l7.838-8.194a1.426,1.426,0,1,1,2.066,1.967L29.3,38.252a1.425,1.425,0,0,1-1.033.442Zm0-11.4a1.425,1.425,0,0,1-1.033-.442l-7.838-8.194a1.426,1.426,0,0,1,2.066-1.967L29.3,24.885a1.425,1.425,0,0,1-1.033,2.408Z" transform="translate(0 0)" fill="#f8951d"/>
    <path id="Path_20041" data-name="Path 20041" d="M31.424,27.293a1.425,1.425,0,0,1-1.033-2.408l7.838-8.194A1.426,1.426,0,0,1,40.3,18.658l-7.838,8.194A1.425,1.425,0,0,1,31.424,27.293Z" transform="translate(-3.162)" fill="#f8951d"/>
  </g>
</svg>
