<svg xmlns="http://www.w3.org/2000/svg" width="13.909" height="18.26" viewBox="0 0 13.909 18.26">
  <g id="Group_3524" data-name="Group 3524" transform="translate(-61)">
    <path id="Path_20034" data-name="Path 20034" d="M88.839,19.993v10.77a1.427,1.427,0,0,1-1.427,1.427H77.427A1.427,1.427,0,0,1,76,30.763V16.427A1.427,1.427,0,0,1,77.427,15h6.419Z" transform="translate(-14.465 -14.465)" fill="rgba(1,53,93,0.25)"/>
    <path id="Path_20035" data-name="Path 20035" d="M300.993,19.993h-4.28A.713.713,0,0,1,296,19.28V15Z" transform="translate(-226.619 -14.465)" fill="#60cd59"/>
    <path id="Path_20036" data-name="Path 20036" d="M74.752,5.149,69.759.157A.535.535,0,0,0,69.381,0H62.962A1.964,1.964,0,0,0,61,1.962V16.3a1.964,1.964,0,0,0,1.962,1.962h9.986A1.964,1.964,0,0,0,74.909,16.3V5.528a.535.535,0,0,0-.157-.378ZM69.916,1.826l3.167,3.167H70.094a.178.178,0,0,1-.178-.178ZM72.947,17.19H62.962a.892.892,0,0,1-.892-.892V1.962a.892.892,0,0,1,.892-.892h5.885V4.815a1.248,1.248,0,0,0,1.248,1.248h3.745V16.3A.892.892,0,0,1,72.947,17.19Z" transform="translate(0 0)"/>
    <path id="Path_20037" data-name="Path 20037" d="M167.241,244.5h-5.706a.535.535,0,1,0,0,1.07h5.706a.535.535,0,0,0,0-1.07Zm-5.706-1.427H165.1a.535.535,0,0,0,0-1.07h-3.566a.535.535,0,1,0,0,1.07Zm5.706,3.923h-5.706a.535.535,0,1,0,0,1.07h5.706a.535.535,0,0,0,0-1.07Z" transform="translate(-96.434 -233.369)"/>
  </g>
</svg>
