<svg xmlns="http://www.w3.org/2000/svg" width="64" height="60.5" viewBox="0 0 64 60.5">
  <g id="Group_3622" data-name="Group 3622" transform="translate(0 -1.8)">
    <path id="Path_20225" data-name="Path 20225" d="M43,10.2v47a4.012,4.012,0,0,1-4,4H4.9a3.927,3.927,0,0,1-3.9-4v-47A3.9,3.9,0,0,1,4.9,6.3H39A3.992,3.992,0,0,1,43,10.2Z" fill="#fff"/>
    <path id="Path_20226" data-name="Path 20226" d="M31.9,4.4V8.2a1.58,1.58,0,0,1-1.6,1.6H13.7a1.58,1.58,0,0,1-1.6-1.6V4.4a1.58,1.58,0,0,1,1.6-1.6H30.4A1.561,1.561,0,0,1,31.9,4.4Z" fill="#f8951d"/>
    <circle id="Ellipse_2722" data-name="Ellipse 2722" cx="14.1" cy="14.1" r="14.1" transform="translate(34.8 32.9)" fill="#f8951d"/>
    <circle id="Ellipse_2723" data-name="Ellipse 2723" cx="9.9" cy="9.9" r="9.9" transform="translate(39 37.1)" fill="#fff"/>
    <path id="Path_20232" data-name="Path 20232" d="M2.2,0A2.2,2.2,0,1,1,0,2.2,2.2,2.2,0,0,1,2.2,0Z" transform="translate(46.7 44.9)"/>
    <path id="Path_20231" data-name="Path 20231" d="M0,0H5.7V5.7H0Z" transform="translate(6.4 38)" fill="#f8951d"/>
    <g id="Group_3620" data-name="Group 3620">
      <rect id="Rectangle_3314" data-name="Rectangle 3314" width="5.7" height="5.7" transform="translate(6.4 49.6)" fill="#f8951d"/>
    </g>
    <g id="Group_3621" data-name="Group 3621">
      <path id="Path_20227" data-name="Path 20227" d="M6.4,33.1H24.8a1,1,0,1,0,0-2H6.4a1,1,0,1,0,0,2Zm0-5.6H37.6a1,1,0,0,0,0-2H6.4a1,1,0,0,0,0,2Zm7.1-11.4H30.4a1,1,0,0,0,0-2H13.5a.945.945,0,0,0-1,1A1,1,0,0,0,13.5,16.1ZM6.4,21.8H37.6a1,1,0,0,0,0-2H6.4a1,1,0,0,0,0,2Z" fill="#01355d"/>
      <path id="Path_20228" data-name="Path 20228" d="M58.6,35.5l.6-.8.6.5c.7.4,1.2.2,1.4-.2a.978.978,0,0,0-.2-1.4l-2.7-2.1a1,1,0,1,0-1.2,1.6l.6.5-.7.7a15.792,15.792,0,0,0-7.2-2.4V29.7H52a1,1,0,0,0,0-2H45.6a1,1,0,0,0,0,2h2.2V32a13.554,13.554,0,0,0-3.9.8V10.2a4.93,4.93,0,0,0-5-4.9H32.8V4.4a2.647,2.647,0,0,0-2.6-2.6H13.7a2.647,2.647,0,0,0-2.6,2.6v.9H4.9a4.93,4.93,0,0,0-4.9,5v47a5,5,0,0,0,4.9,5H39a5,5,0,0,0,3.5-1.4,15,15,0,0,0,6.4,1.4A15.324,15.324,0,0,0,64,47,15.041,15.041,0,0,0,58.6,35.5ZM13.1,4.4a.645.645,0,0,1,.6-.6H30.4a.645.645,0,0,1,.6.6V8.2a.645.645,0,0,1-.6.6H13.7a.645.645,0,0,1-.6-.6S13.1,4.4,13.1,4.4ZM39,60.2H4.9a2.925,2.925,0,0,1-2.9-3v-47A2.9,2.9,0,0,1,4.9,7.3H11v.9a2.647,2.647,0,0,0,2.6,2.6H30.3a2.647,2.647,0,0,0,2.6-2.6V7.3H39a3.009,3.009,0,0,1,3,3V33.7c-.4.2-.9.5-1.3.7l-.6-.8.6-.5a1,1,0,1,0-1.2-1.6l-2.7,2.1a1.075,1.075,0,0,0-.2,1.4c.3.4.7.5,1.4.2l.6-.5.6.8a15.049,15.049,0,0,0,1.5,24.2A3.686,3.686,0,0,1,39,60.2Zm9.9,0a13.1,13.1,0,0,1,0-26.2A13,13,0,0,1,62,47,13.231,13.231,0,0,1,48.9,60.2Z"/>
      <path id="Path_20229" data-name="Path 20229" d="M48.9,36.1A10.9,10.9,0,1,0,59.8,47,10.926,10.926,0,0,0,48.9,36.1Zm0,19.8A8.9,8.9,0,1,1,57.8,47,8.856,8.856,0,0,1,48.9,55.9Z"/>
      <path id="Path_20230" data-name="Path 20230" d="M53,41.6l-2.7,2.7a3.255,3.255,0,0,0-1.4-.4A3.238,3.238,0,0,0,46,48.5l-.3.3a.99.99,0,0,0,1.4,1.4l.3-.3a3.255,3.255,0,0,0,1.4.4,3.238,3.238,0,0,0,2.9-4.6L54.4,43A.99.99,0,0,0,53,41.6Zm-4.1,6.6A1.216,1.216,0,0,1,47.7,47a1.2,1.2,0,1,1,2.4,0A1.216,1.216,0,0,1,48.9,48.2ZM12.1,37H6.4a.945.945,0,0,0-1,1v5.7a.945.945,0,0,0,1,1h5.7a.945.945,0,0,0,1-1V38A1.075,1.075,0,0,0,12.1,37Zm-1,5.7H7.4V39h3.7Zm1,5.9H6.4a.945.945,0,0,0-1,1v5.7a.945.945,0,0,0,1,1h5.7a.945.945,0,0,0,1-1V49.6A1.075,1.075,0,0,0,12.1,48.6Zm-1,5.7H7.4V50.6h3.7Zm5.6-16.1a1,1,0,0,0,0,2h4.6a1,1,0,0,0,0-2Zm12.1,3.3H16.7a1,1,0,0,0,0,2H28.8a.945.945,0,0,0,1-1A1,1,0,0,0,28.8,41.5ZM16.7,51.8h4.6a1,1,0,0,0,0-2H16.7a1,1,0,0,0,0,2Zm12.1,1.3H16.7a1,1,0,1,0,0,2H28.8a.945.945,0,0,0,1-1A1,1,0,0,0,28.8,53.1Z"/>
    </g>
  </g>
</svg>
